<?xml version="1.0" encoding="UTF-8" standalone="no"?>
<svg
   xmlns:dc="http://purl.org/dc/elements/1.1/"
   xmlns:cc="http://creativecommons.org/ns#"
   xmlns:rdf="http://www.w3.org/1999/02/22-rdf-syntax-ns#"
   xmlns:svg="http://www.w3.org/2000/svg"
   xmlns="http://www.w3.org/2000/svg"
   viewBox="94 169 500 200"
   height="459"
   width="781"
   xml:space="preserve"
   id="svg2"
   version="1.1"><metadata
     id="metadata8"><rdf:RDF><cc:Work
         rdf:about=""><dc:format>image/svg+xml</dc:format><dc:type
           rdf:resource="http://purl.org/dc/dcmitype/StillImage" /></cc:Work></rdf:RDF></metadata><defs
     id="defs6"><clipPath
       id="clipPath18"
       clipPathUnits="userSpaceOnUse"><path
         style="clip-rule:evenodd"
         id="path16"
         d="M 8.871e-6,0 H 595.32001 V 841.92 H 8.871e-6 Z" /></clipPath><clipPath
       id="clipPath26"
       clipPathUnits="userSpaceOnUse"><path
         style="clip-rule:evenodd"
         id="path24"
         d="M 8.871e-6,0 H 595.32001 V 841.92 H 8.871e-6 Z" /></clipPath><clipPath
       id="clipPath34"
       clipPathUnits="userSpaceOnUse"><path
         style="clip-rule:evenodd"
         id="path32"
         d="M 8.871e-6,0 H 595.32001 V 841.92 H 8.871e-6 Z" /></clipPath><clipPath
       id="clipPath42"
       clipPathUnits="userSpaceOnUse"><path
         style="clip-rule:evenodd"
         id="path40"
         d="m 0,522.96 h 595.32 v 227.4 H 0 Z" /></clipPath><clipPath
       id="clipPath72"
       clipPathUnits="userSpaceOnUse"><path
         style="clip-rule:evenodd"
         id="path70"
         d="m 70.8,531.36 h 373.8 v 219 H 70.8 Z" /></clipPath><clipPath
       id="clipPath88"
       clipPathUnits="userSpaceOnUse"><path
         style="clip-rule:evenodd"
         id="path86"
         d="m 70.8,531.36 h 373.8 v 219 H 70.8 Z" /></clipPath><clipPath
       id="clipPath104"
       clipPathUnits="userSpaceOnUse"><path
         style="clip-rule:evenodd"
         id="path102"
         d="m 70.8,531.36 h 373.8 v 219 H 70.8 Z" /></clipPath><clipPath
       id="clipPath120"
       clipPathUnits="userSpaceOnUse"><path
         style="clip-rule:evenodd"
         id="path118"
         d="m 70.8,531.36 h 373.8 v 219 H 70.8 Z" /></clipPath><clipPath
       id="clipPath136"
       clipPathUnits="userSpaceOnUse"><path
         style="clip-rule:evenodd"
         id="path134"
         d="m 70.8,531.36 h 373.8 v 219 H 70.8 Z" /></clipPath><clipPath
       id="clipPath152"
       clipPathUnits="userSpaceOnUse"><path
         style="clip-rule:evenodd"
         id="path150"
         d="m 70.8,531.36 h 373.8 v 219 H 70.8 Z" /></clipPath><clipPath
       id="clipPath164"
       clipPathUnits="userSpaceOnUse"><path
         style="clip-rule:evenodd"
         id="path162"
         d="m 0,522.96 h 595.32 v 227.4 H 0 Z" /></clipPath></defs><g
     transform="matrix(1.3333333,0,0,-1.3333333,0,1122.56)"
     id="g10"><g
       id="g12"><g
         clip-path="url(#clipPath18)"
         id="g14" /></g><g
       id="g20"><g
         clip-path="url(#clipPath26)"
         id="g22" /></g><g
       id="g28"><g
         clip-path="url(#clipPath34)"
         id="g30" /></g><g
       id="g36"><g
         clip-path="url(#clipPath42)"
         id="g38"><path
           id="path44"
           style="fill:#ffffff;fill-opacity:1;fill-rule:evenodd;stroke:none"
           d="M 70.85,531.27 H 444.7 v 219.1 H 70.85 Z" /></g></g><path
       id="path46"
       style="fill:#4472c4;fill-opacity:1;fill-rule:evenodd;stroke:none"
       d="m 257.78,716.94 c 41.91,0 75.89,-33.98 75.89,-75.9 0,-35.56 -24.7,-66.36 -59.42,-74.08 l -16.47,74.08 z" /><path
       id="path48"
       style="fill:none;stroke:#ffffff;stroke-width:1.55999994;stroke-linecap:butt;stroke-linejoin:round;stroke-miterlimit:10;stroke-dasharray:none;stroke-opacity:1"
       d="m 257.78,716.94 c 41.91,0 75.89,-33.98 75.89,-75.9 0,-35.56 -24.7,-66.36 -59.42,-74.08 l -16.47,74.08 z" /><path
       id="path50"
       style="fill:#ed7d31;fill-opacity:1;fill-rule:evenodd;stroke:none"
       d="m 274.25,566.96 c -40.91,-9.1 -81.46,16.69 -90.56,57.6 -5.73,25.76 2.33,52.65 21.28,71.01 l 52.81,-54.53 z" /><path
       id="path52"
       style="fill:none;stroke:#ffffff;stroke-width:1.55999994;stroke-linecap:butt;stroke-linejoin:round;stroke-miterlimit:10;stroke-dasharray:none;stroke-opacity:1"
       d="m 274.25,566.96 c -40.91,-9.1 -81.46,16.69 -90.56,57.6 -5.73,25.76 2.33,52.65 21.28,71.01 l 52.81,-54.53 z" /><path
       id="path54"
       style="fill:#a5a5a5;fill-opacity:1;fill-rule:evenodd;stroke:none"
       d="m 204.97,695.57 c 7.34,7.1 16.04,12.65 25.57,16.32 l 27.24,-70.85 z" /><path
       id="path56"
       style="fill:none;stroke:#ffffff;stroke-width:1.55999994;stroke-linecap:butt;stroke-linejoin:round;stroke-miterlimit:10;stroke-dasharray:none;stroke-opacity:1"
       d="m 204.97,695.57 c 7.34,7.1 16.04,12.65 25.57,16.32 l 27.24,-70.85 z" /><path
       id="path58"
       style="fill:#ffc000;fill-opacity:1;fill-rule:evenodd;stroke:none"
       d="m 230.54,711.89 c 4.39,1.68 8.93,2.96 13.55,3.81 l 13.69,-74.66 z" /><path
       id="path60"
       style="fill:none;stroke:#ffffff;stroke-width:1.55999994;stroke-linecap:butt;stroke-linejoin:round;stroke-miterlimit:10;stroke-dasharray:none;stroke-opacity:1"
       d="m 230.54,711.89 c 4.39,1.68 8.93,2.96 13.55,3.81 l 13.69,-74.66 z" /><path
       id="path62"
       style="fill:#5b9bd5;fill-opacity:1;fill-rule:evenodd;stroke:none"
       d="m 244.09,715.7 c 4.52,0.83 9.1,1.24 13.68,1.24 l 0.01,-75.9 z" /><path
       id="path64"
       style="fill:none;stroke:#ffffff;stroke-width:1.55999994;stroke-linecap:butt;stroke-linejoin:round;stroke-miterlimit:10;stroke-dasharray:none;stroke-opacity:1"
       d="m 244.09,715.7 c 4.52,0.83 9.1,1.24 13.68,1.24 l 0.01,-75.9 z" /><g
       id="g66"><g
         clip-path="url(#clipPath72)"
         id="g68"><text
           id="text76"
           style="font-variant:normal;font-weight:normal;font-size:11.03999996px;font-family:Calibri;-inkscape-font-specification:Calibri;writing-mode:lr-tb;fill:#595959;fill-opacity:1;fill-rule:nonzero;stroke:none"
           transform="matrix(1,0,0,-1,130.82,732.41)"><tspan
             id="tspan74"
             y="0"
             x="0 6.8337598 9.3729601 14.66112 19.79472 23.64768 28.935841 37.778881 46.644001 48.929279 54.559681 57.551521 59.8368 67.266724 73.062721 78.317757 84.080643 87.779037 90.318237 94.01664 99.304802 103.02528 105.56448 110.55456 116.09664 118.38192 124.6416 130.13953 133.99248 137.69089 143.21088 145.75008 148.25616 154.01904 159.78192 164.93761 167.33328 173.09616 178.59409 182.44704 184.96416 191.35632 197.08607 200.45328 205.60896 210.89713 216.64896 222.14688 227.94289 231.64128 236.67552 242.4384 247.93633">Diagramm 5: Quantitative Verteilung der Aufgabentypen</tspan></text>
</g></g><path
       id="path78"
       style="fill:#4472c4;fill-opacity:1;fill-rule:evenodd;stroke:none"
       d="m 97.105,543.24 h 4.9433 v 4.9433 H 97.105 Z" /><path
       id="path80"
       style="fill:none;stroke:#ffffff;stroke-width:1.5;stroke-linecap:butt;stroke-linejoin:round;stroke-miterlimit:10;stroke-dasharray:none;stroke-opacity:1"
       d="m 97.105,543.24 h 4.9433 v 4.9433 H 97.105 Z" /><g
       id="g82"><g
         clip-path="url(#clipPath88)"
         id="g84"><text
           id="text92"
           style="font-variant:normal;font-weight:normal;font-size:9px;font-family:Calibri;-inkscape-font-specification:Calibri;writing-mode:lr-tb;fill:#595959;fill-opacity:1;fill-rule:nonzero;stroke:none"
           transform="matrix(1,0,0,-1,104.16,543.14)"><tspan
             id="tspan90"
             y="0"
             x="0 4.6529999 9.1350002 12.24 14.985 19.791 22.931999 30.122999 34.433998 39.113998 42.948002">Performance</tspan></text>
</g></g><path
       id="path94"
       style="fill:#ed7d31;fill-opacity:1;fill-rule:evenodd;stroke:none"
       d="m 158.75,543.24 h 4.9433 v 4.9433 H 158.75 Z" /><path
       id="path96"
       style="fill:none;stroke:#ffffff;stroke-width:1.5;stroke-linecap:butt;stroke-linejoin:round;stroke-miterlimit:10;stroke-dasharray:none;stroke-opacity:1"
       d="m 158.75,543.24 h 4.9433 v 4.9433 H 158.75 Z" /><g
       id="g98"><g
         clip-path="url(#clipPath104)"
         id="g100"><text
           id="text108"
           style="font-variant:normal;font-weight:normal;font-size:9px;font-family:Calibri;-inkscape-font-specification:Calibri;writing-mode:lr-tb;fill:#595959;fill-opacity:1;fill-rule:nonzero;stroke:none"
           transform="matrix(1,0,0,-1,165.82,543.14)"><tspan
             id="tspan106"
             y="0"
             x="0 4.6799998 9.4680004 16.551001 21.339001 26.018999 29.610001 31.653 34.667999 36.693001 41.480999">Komposition</tspan></text>
</g></g><path
       id="path110"
       style="fill:#a5a5a5;fill-opacity:1;fill-rule:evenodd;stroke:none"
       d="m 219.2,543.24 h 4.9433 v 4.9433 H 219.2 Z" /><path
       id="path112"
       style="fill:none;stroke:#ffffff;stroke-width:1.5;stroke-linecap:butt;stroke-linejoin:round;stroke-miterlimit:10;stroke-dasharray:none;stroke-opacity:1"
       d="m 219.2,543.24 h 4.9433 v 4.9433 H 219.2 Z" /><g
       id="g114"><g
         clip-path="url(#clipPath120)"
         id="g116"><text
           id="text124"
           style="font-variant:normal;font-weight:normal;font-size:9px;font-family:Calibri;-inkscape-font-specification:Calibri;writing-mode:lr-tb;fill:#595959;fill-opacity:1;fill-rule:nonzero;stroke:none"
           transform="matrix(1,0,0,-1,226.3,543.14)"><tspan
             id="tspan122"
             y="0"
             x="0 3.5910001 8.2709999 10.305 14.373 18.855 21.951 25.065001 29.745001 34.424999 38.979 43.659 48.446999 52.883999 56.025002 58.058998 62.478001 66.915001 70.758003">zu vertonender Text</tspan></text>
</g></g><path
       id="path126"
       style="fill:#ffc000;fill-opacity:1;fill-rule:evenodd;stroke:none"
       d="m 307.3,543.24 h 4.9433 v 4.9433 H 307.3 Z" /><path
       id="path128"
       style="fill:none;stroke:#ffffff;stroke-width:1.5;stroke-linecap:butt;stroke-linejoin:round;stroke-miterlimit:10;stroke-dasharray:none;stroke-opacity:1"
       d="m 307.3,543.24 h 4.9433 v 4.9433 H 307.3 Z" /><g
       id="g130"><g
         clip-path="url(#clipPath136)"
         id="g132"><text
           id="text140"
           style="font-variant:normal;font-weight:normal;font-size:9px;font-family:Calibri;-inkscape-font-specification:Calibri;writing-mode:lr-tb;fill:#595959;fill-opacity:1;fill-rule:nonzero;stroke:none"
           transform="matrix(1,0,0,-1,314.4,543.14)"><tspan
             id="tspan138"
             y="0"
             x="0 4.0770001 8.8649998 13.545 17.136 20.150999 22.176001 26.379 30.933001">Sonstiges</tspan></text>
</g></g><path
       id="path142"
       style="fill:#5b9bd5;fill-opacity:1;fill-rule:evenodd;stroke:none"
       d="m 355.97,543.24 h 4.9433 v 4.9433 H 355.97 Z" /><path
       id="path144"
       style="fill:none;stroke:#ffffff;stroke-width:1.5;stroke-linecap:butt;stroke-linejoin:round;stroke-miterlimit:10;stroke-dasharray:none;stroke-opacity:1"
       d="m 355.97,543.24 h 4.9433 v 4.9433 H 355.97 Z" /><g
       id="g146"><g
         clip-path="url(#clipPath152)"
         id="g148"><text
           id="text156"
           style="font-variant:normal;font-weight:normal;font-size:9px;font-family:Calibri;-inkscape-font-specification:Calibri;writing-mode:lr-tb;fill:#595959;fill-opacity:1;fill-rule:nonzero;stroke:none"
           transform="matrix(1,0,0,-1,363.07,543.14)"><tspan
             id="tspan154"
             y="0"
             x="0 4.428 8.8649998 12.708 15.822 17.739 22.527 27.207001 31.761 34.902 36.936001 44.604 49.284 52.875 54.917999">Text über Musik</tspan></text>
</g></g><g
       id="g158"><g
         clip-path="url(#clipPath164)"
         id="g160"><path
           id="path166"
           style="fill:none;stroke:#d9d9d9;stroke-width:0.75;stroke-linecap:butt;stroke-linejoin:round;stroke-miterlimit:10;stroke-dasharray:none;stroke-opacity:1"
           d="M 70.85,531.27 H 444.7 v 219.1 H 70.85 Z" /></g></g></g></svg>