<?xml version="1.0" encoding="UTF-8" standalone="no"?>
<svg
   xmlns:dc="http://purl.org/dc/elements/1.1/"
   xmlns:cc="http://creativecommons.org/ns#"
   xmlns:rdf="http://www.w3.org/1999/02/22-rdf-syntax-ns#"
   xmlns:svg="http://www.w3.org/2000/svg"
   xmlns="http://www.w3.org/2000/svg"
   viewBox="94 168 500 200"
   height="456"
   width="781"
   xml:space="preserve"
   id="svg2"
   version="1.1"><metadata
     id="metadata8"><rdf:RDF><cc:Work
         rdf:about=""><dc:format>image/svg+xml</dc:format><dc:type
           rdf:resource="http://purl.org/dc/dcmitype/StillImage" /></cc:Work></rdf:RDF></metadata><defs
     id="defs6"><clipPath
       id="clipPath18"
       clipPathUnits="userSpaceOnUse"><path
         style="clip-rule:evenodd"
         id="path16"
         d="M 8.871e-6,0 H 595.32001 V 841.92 H 8.871e-6 Z" /></clipPath><clipPath
       id="clipPath26"
       clipPathUnits="userSpaceOnUse"><path
         style="clip-rule:evenodd"
         id="path24"
         d="M 8.871e-6,0 H 595.32001 V 841.92 H 8.871e-6 Z" /></clipPath><clipPath
       id="clipPath34"
       clipPathUnits="userSpaceOnUse"><path
         style="clip-rule:evenodd"
         id="path32"
         d="M 0,524.52 H 595.32 V 750.36 H 0 Z" /></clipPath><clipPath
       id="clipPath56"
       clipPathUnits="userSpaceOnUse"><path
         style="clip-rule:evenodd"
         id="path54"
         d="M 70.8,532.44 H 444.6 V 750.36 H 70.8 Z" /></clipPath><clipPath
       id="clipPath68"
       clipPathUnits="userSpaceOnUse"><path
         style="clip-rule:evenodd"
         id="path66"
         d="M 70.8,532.44 H 444.6 V 750.36 H 70.8 Z" /></clipPath><clipPath
       id="clipPath80"
       clipPathUnits="userSpaceOnUse"><path
         style="clip-rule:evenodd"
         id="path78"
         d="M 70.8,532.44 H 444.6 V 750.36 H 70.8 Z" /></clipPath><clipPath
       id="clipPath92"
       clipPathUnits="userSpaceOnUse"><path
         style="clip-rule:evenodd"
         id="path90"
         d="M 70.8,532.44 H 444.6 V 750.36 H 70.8 Z" /></clipPath><clipPath
       id="clipPath104"
       clipPathUnits="userSpaceOnUse"><path
         style="clip-rule:evenodd"
         id="path102"
         d="M 70.8,532.44 H 444.6 V 750.36 H 70.8 Z" /></clipPath><clipPath
       id="clipPath116"
       clipPathUnits="userSpaceOnUse"><path
         style="clip-rule:evenodd"
         id="path114"
         d="M 70.8,532.44 H 444.6 V 750.36 H 70.8 Z" /></clipPath><clipPath
       id="clipPath128"
       clipPathUnits="userSpaceOnUse"><path
         style="clip-rule:evenodd"
         id="path126"
         d="M 70.8,532.44 H 444.6 V 750.36 H 70.8 Z" /></clipPath><clipPath
       id="clipPath140"
       clipPathUnits="userSpaceOnUse"><path
         style="clip-rule:evenodd"
         id="path138"
         d="M 70.8,532.44 H 444.6 V 750.36 H 70.8 Z" /></clipPath><clipPath
       id="clipPath152"
       clipPathUnits="userSpaceOnUse"><path
         style="clip-rule:evenodd"
         id="path150"
         d="M 70.8,532.44 H 444.6 V 750.36 H 70.8 Z" /></clipPath><clipPath
       id="clipPath164"
       clipPathUnits="userSpaceOnUse"><path
         style="clip-rule:evenodd"
         id="path162"
         d="M 70.8,532.44 H 444.6 V 750.36 H 70.8 Z" /></clipPath><clipPath
       id="clipPath176"
       clipPathUnits="userSpaceOnUse"><path
         style="clip-rule:evenodd"
         id="path174"
         d="M 70.8,532.44 H 444.6 V 750.36 H 70.8 Z" /></clipPath><clipPath
       id="clipPath188"
       clipPathUnits="userSpaceOnUse"><path
         style="clip-rule:evenodd"
         id="path186"
         d="M 70.8,532.44 H 444.6 V 750.36 H 70.8 Z" /></clipPath><clipPath
       id="clipPath200"
       clipPathUnits="userSpaceOnUse"><path
         style="clip-rule:evenodd"
         id="path198"
         d="M 70.8,532.44 H 444.6 V 750.36 H 70.8 Z" /></clipPath><clipPath
       id="clipPath212"
       clipPathUnits="userSpaceOnUse"><path
         style="clip-rule:evenodd"
         id="path210"
         d="M 70.8,532.44 H 444.6 V 750.36 H 70.8 Z" /></clipPath><clipPath
       id="clipPath224"
       clipPathUnits="userSpaceOnUse"><path
         style="clip-rule:evenodd"
         id="path222"
         d="M 70.8,532.44 H 444.6 V 750.36 H 70.8 Z" /></clipPath><clipPath
       id="clipPath236"
       clipPathUnits="userSpaceOnUse"><path
         style="clip-rule:evenodd"
         id="path234"
         d="M 70.8,532.44 H 444.6 V 750.36 H 70.8 Z" /></clipPath><clipPath
       id="clipPath248"
       clipPathUnits="userSpaceOnUse"><path
         style="clip-rule:evenodd"
         id="path246"
         d="M 70.8,532.44 H 444.6 V 750.36 H 70.8 Z" /></clipPath><clipPath
       id="clipPath260"
       clipPathUnits="userSpaceOnUse"><path
         style="clip-rule:evenodd"
         id="path258"
         d="M 70.8,532.44 H 444.6 V 750.36 H 70.8 Z" /></clipPath><clipPath
       id="clipPath272"
       clipPathUnits="userSpaceOnUse"><path
         style="clip-rule:evenodd"
         id="path270"
         d="M 70.8,532.44 H 444.6 V 750.36 H 70.8 Z" /></clipPath><clipPath
       id="clipPath286"
       clipPathUnits="userSpaceOnUse"><path
         style="clip-rule:evenodd"
         id="path284"
         d="M 70.8,532.44 H 444.6 V 750.36 H 70.8 Z" /></clipPath><clipPath
       id="clipPath300"
       clipPathUnits="userSpaceOnUse"><path
         style="clip-rule:evenodd"
         id="path298"
         d="M 70.8,532.44 H 444.6 V 750.36 H 70.8 Z" /></clipPath><clipPath
       id="clipPath314"
       clipPathUnits="userSpaceOnUse"><path
         style="clip-rule:evenodd"
         id="path312"
         d="M 70.8,532.44 H 444.6 V 750.36 H 70.8 Z" /></clipPath><clipPath
       id="clipPath328"
       clipPathUnits="userSpaceOnUse"><path
         style="clip-rule:evenodd"
         id="path326"
         d="M 70.8,532.44 H 444.6 V 750.36 H 70.8 Z" /></clipPath><clipPath
       id="clipPath340"
       clipPathUnits="userSpaceOnUse"><path
         style="clip-rule:evenodd"
         id="path338"
         d="M 0,524.52 H 595.32 V 750.36 H 0 Z" /></clipPath></defs><g
     transform="matrix(1.3333333,0,0,-1.3333333,0,1122.56)"
     id="g10"><g
       id="g12"><g
         clip-path="url(#clipPath18)"
         id="g14" /></g><g
       id="g20"><g
         clip-path="url(#clipPath26)"
         id="g22" /></g><g
       id="g28"><g
         clip-path="url(#clipPath34)"
         id="g30"><path
           id="path36"
           style="fill:#ffffff;fill-opacity:1;fill-rule:evenodd;stroke:none"
           d="M 70.85,532.42 H 444.7 V 750.37 H 70.85 Z" /></g></g><path
       id="path38"
       style="fill:none;stroke:#d9d9d9;stroke-width:0.75;stroke-linecap:butt;stroke-linejoin:round;stroke-miterlimit:10;stroke-dasharray:none;stroke-opacity:1"
       d="M 99.379,592.44 H 433.7 M 99.379,606.36 H 433.7 M 99.379,620.28 H 433.7 M 99.379,634.32 H 433.7 M 99.379,648.24 H 433.7 M 99.379,662.16 H 433.7 M 99.379,676.08 H 433.7 m -334.321,14 H 433.7" /><path
       id="path40"
       style="fill:#4472c4;fill-opacity:1;fill-rule:nonzero;stroke:none"
       d="m 109.8,580.44 h 9.6 v -1.94 h -9.6 z m 66.96,14.76 h 9.48 v -16.7 h -9.48 z m 66.84,9.84 h 9.48 V 578.5 h -9.48 z m 66.84,19.44 h 9.6 V 578.5 h -9.6 z m 66.84,14.04 h 9.6 V 578.5 h -9.6 z" /><path
       id="path42"
       style="fill:#ed7d31;fill-opacity:1;fill-rule:nonzero;stroke:none"
       d="m 121.92,579.6 h 9.6 v -1.1 h -9.6 z m 66.96,4.2 h 9.48 v -5.3 h -9.48 z m 66.84,10.08 h 9.48 V 578.5 h -9.48 z m 66.84,24 h 9.6 V 578.5 h -9.6 z m 66.84,56.04 H 399 V 578.5 h -9.6 z" /><path
       id="path44"
       style="fill:#a5a5a5;fill-opacity:1;fill-rule:nonzero;stroke:none"
       d="m 134.16,578.76 h 9.48 v -0.26 h -9.48 z M 201,579.6 h 9.48 v -1.1 H 201 Z m 66.84,2.52 h 9.6 v -3.62 h -9.6 z m 66.84,6.72 h 9.6 V 578.5 h -9.6 z m 66.84,-2.28 h 9.6 v -8.06 h -9.6 z" /><path
       id="path46"
       style="fill:#ffc000;fill-opacity:1;fill-rule:nonzero;stroke:none"
       d="m 146.28,579 h 9.48 v -0.5 h -9.48 z m 66.84,0.84 h 9.48 v -1.34 h -9.48 z m 66.84,0.84 h 9.6 v -2.18 h -9.6 z m 66.84,0.36 h 9.6 v -2.54 h -9.6 z m 66.84,1.68 h 9.6 v -4.22 h -9.6 z" /><path
       id="path48"
       style="fill:none;stroke:#d9d9d9;stroke-width:0.75;stroke-linecap:butt;stroke-linejoin:round;stroke-miterlimit:10;stroke-dasharray:none;stroke-opacity:1"
       d="M 99.379,578.5 H 433.7" /><g
       id="g50"><g
         clip-path="url(#clipPath56)"
         id="g52"><text
           id="text60"
           style="font-variant:normal;font-weight:normal;font-size:9px;font-family:Calibri;-inkscape-font-specification:Calibri;writing-mode:lr-tb;fill:#595959;fill-opacity:1;fill-rule:nonzero;stroke:none"
           transform="matrix(1,0,0,-1,86.496,575.93)"><tspan
             id="tspan58"
             y="0"
             x="0">0</tspan></text>
</g></g><g
       id="g62"><g
         clip-path="url(#clipPath68)"
         id="g64"><text
           id="text72"
           style="font-variant:normal;font-weight:normal;font-size:9px;font-family:Calibri;-inkscape-font-specification:Calibri;writing-mode:lr-tb;fill:#595959;fill-opacity:1;fill-rule:nonzero;stroke:none"
           transform="matrix(1,0,0,-1,81.936,589.87)"><tspan
             id="tspan70"
             y="0"
             x="0 4.5599999">50</tspan></text>
</g></g><g
       id="g74"><g
         clip-path="url(#clipPath80)"
         id="g76"><text
           id="text84"
           style="font-variant:normal;font-weight:normal;font-size:9px;font-family:Calibri;-inkscape-font-specification:Calibri;writing-mode:lr-tb;fill:#595959;fill-opacity:1;fill-rule:nonzero;stroke:none"
           transform="matrix(1,0,0,-1,77.376,603.82)"><tspan
             id="tspan82"
             y="0"
             x="0 4.5599999 9.1199999">100</tspan></text>
</g></g><g
       id="g86"><g
         clip-path="url(#clipPath92)"
         id="g88"><text
           id="text96"
           style="font-variant:normal;font-weight:normal;font-size:9px;font-family:Calibri;-inkscape-font-specification:Calibri;writing-mode:lr-tb;fill:#595959;fill-opacity:1;fill-rule:nonzero;stroke:none"
           transform="matrix(1,0,0,-1,77.376,617.78)"><tspan
             id="tspan94"
             y="0"
             x="0 4.5599999 9.1199999">150</tspan></text>
</g></g><g
       id="g98"><g
         clip-path="url(#clipPath104)"
         id="g100"><text
           id="text108"
           style="font-variant:normal;font-weight:normal;font-size:9px;font-family:Calibri;-inkscape-font-specification:Calibri;writing-mode:lr-tb;fill:#595959;fill-opacity:1;fill-rule:nonzero;stroke:none"
           transform="matrix(1,0,0,-1,77.376,631.73)"><tspan
             id="tspan106"
             y="0"
             x="0 4.5599999 9.1199999">200</tspan></text>
</g></g><g
       id="g110"><g
         clip-path="url(#clipPath116)"
         id="g112"><text
           id="text120"
           style="font-variant:normal;font-weight:normal;font-size:9px;font-family:Calibri;-inkscape-font-specification:Calibri;writing-mode:lr-tb;fill:#595959;fill-opacity:1;fill-rule:nonzero;stroke:none"
           transform="matrix(1,0,0,-1,77.376,645.67)"><tspan
             id="tspan118"
             y="0"
             x="0 4.5599999 9.1199999">250</tspan></text>
</g></g><g
       id="g122"><g
         clip-path="url(#clipPath128)"
         id="g124"><text
           id="text132"
           style="font-variant:normal;font-weight:normal;font-size:9.02400017px;font-family:Calibri;-inkscape-font-specification:Calibri;writing-mode:lr-tb;fill:#595959;fill-opacity:1;fill-rule:nonzero;stroke:none"
           transform="matrix(1,0,0,-1,77.376,659.64)"><tspan
             id="tspan130"
             y="0"
             x="0 4.559968 9.119936">300</tspan></text>
</g></g><g
       id="g134"><g
         clip-path="url(#clipPath140)"
         id="g136"><text
           id="text144"
           style="font-variant:normal;font-weight:normal;font-size:9px;font-family:Calibri;-inkscape-font-specification:Calibri;writing-mode:lr-tb;fill:#595959;fill-opacity:1;fill-rule:nonzero;stroke:none"
           transform="matrix(1,0,0,-1,77.376,673.58)"><tspan
             id="tspan142"
             y="0"
             x="0 4.5599999 9.1199999">350</tspan></text>
</g></g><g
       id="g146"><g
         clip-path="url(#clipPath152)"
         id="g148"><text
           id="text156"
           style="font-variant:normal;font-weight:normal;font-size:9px;font-family:Calibri;-inkscape-font-specification:Calibri;writing-mode:lr-tb;fill:#595959;fill-opacity:1;fill-rule:nonzero;stroke:none"
           transform="matrix(1,0,0,-1,77.376,687.53)"><tspan
             id="tspan154"
             y="0"
             x="0 4.5599999 9.1199999">400</tspan></text>
</g></g><g
       id="g158"><g
         clip-path="url(#clipPath164)"
         id="g160"><text
           id="text168"
           style="font-variant:normal;font-weight:normal;font-size:9px;font-family:Calibri;-inkscape-font-specification:Calibri;writing-mode:lr-tb;fill:#595959;fill-opacity:1;fill-rule:nonzero;stroke:none"
           transform="matrix(1,0,0,-1,117.77,564.22)"><tspan
             id="tspan166"
             y="0"
             x="0 4.5599999 9.1199999 13.68 18.24 20.990999 25.551001">1820-29</tspan></text>
</g></g><g
       id="g170"><g
         clip-path="url(#clipPath176)"
         id="g172"><text
           id="text180"
           style="font-variant:normal;font-weight:normal;font-size:9px;font-family:Calibri;-inkscape-font-specification:Calibri;writing-mode:lr-tb;fill:#595959;fill-opacity:1;fill-rule:nonzero;stroke:none"
           transform="matrix(1,0,0,-1,184.66,564.22)"><tspan
             id="tspan178"
             y="0"
             x="0 4.5599999 9.1199999 13.68 18.24 20.990999 25.551001">1830-39</tspan></text>
</g></g><g
       id="g182"><g
         clip-path="url(#clipPath188)"
         id="g184"><text
           id="text192"
           style="font-variant:normal;font-weight:normal;font-size:9px;font-family:Calibri;-inkscape-font-specification:Calibri;writing-mode:lr-tb;fill:#595959;fill-opacity:1;fill-rule:nonzero;stroke:none"
           transform="matrix(1,0,0,-1,251.52,564.22)"><tspan
             id="tspan190"
             y="0"
             x="0 4.5630002 9.1619997 13.725 18.323999 21.077999 25.641001">1840-49</tspan></text>
</g></g><g
       id="g194"><g
         clip-path="url(#clipPath200)"
         id="g196"><text
           id="text204"
           style="font-variant:normal;font-weight:normal;font-size:9px;font-family:Calibri;-inkscape-font-specification:Calibri;writing-mode:lr-tb;fill:#595959;fill-opacity:1;fill-rule:nonzero;stroke:none"
           transform="matrix(1,0,0,-1,318.41,564.22)"><tspan
             id="tspan202"
             y="0"
             x="0 4.5599999 9.1199999 13.68 18.24 20.990999 25.551001">1850-59</tspan></text>
</g></g><g
       id="g206"><g
         clip-path="url(#clipPath212)"
         id="g208"><text
           id="text216"
           style="font-variant:normal;font-weight:normal;font-size:9px;font-family:Calibri;-inkscape-font-specification:Calibri;writing-mode:lr-tb;fill:#595959;fill-opacity:1;fill-rule:nonzero;stroke:none"
           transform="matrix(1,0,0,-1,385.3,564.22)"><tspan
             id="tspan214"
             y="0"
             x="0 4.5599999 9.1199999 13.68 18.24 20.990999 25.551001">1860-69</tspan></text>
</g></g><g
       id="g218"><g
         clip-path="url(#clipPath224)"
         id="g220"><text
           id="text228"
           style="font-variant:normal;font-weight:normal;font-size:11.03999996px;font-family:Calibri;-inkscape-font-specification:Calibri;writing-mode:lr-tb;fill:#595959;fill-opacity:1;fill-rule:nonzero;stroke:none"
           transform="matrix(1,0,0,-1,125.06,732.41)"><tspan
             id="tspan226"
             y="0"
             x="0 6.8337598 9.3729601 14.66112 19.79472 23.64768 28.935841 37.778881 46.644001 48.929279 54.559681 57.551521 59.8368 66.228958 71.958717 76.27536 81.563522 87.315361 89.854561 92.349602 98.145599 103.87536 109.63824 112.26576 118.52544 124.02336 127.87632 131.57472 137.09473 139.63393 142.14 147.90288 153.66576 158.82144 161.21712 166.98 172.47792 176.33089 178.73759 185.12976 190.85953 194.22672 199.3824 204.67056 210.42239 215.92032 221.71632 225.41472 230.44896 236.21184 241.70976 247.50575 249.8904 255.65327 259.50623 265.35745">Diagramm 6: Anzahl und Verteilung der Aufgabentypen pro </tspan></text>
</g></g><g
       id="g230"><g
         clip-path="url(#clipPath236)"
         id="g232"><text
           id="text240"
           style="font-variant:normal;font-weight:normal;font-size:11.03999996px;font-family:Calibri;-inkscape-font-specification:Calibri;writing-mode:lr-tb;fill:#595959;fill-opacity:1;fill-rule:nonzero;stroke:none"
           transform="matrix(1,0,0,-1,143.9,718.97)"><tspan
             id="tspan238"
             y="0"
             x="0 3.4776001 8.7657604 14.5176 18.37056 22.676161 28.17408 33.970081 39.71088 43.409279 45.937439 48.476639 57.330719 59.726398 64.89312 70.391037 72.930237 76.628639 80.481598 85.76976 91.521599 100.38672 102.672 108.3024 113.9328 119.5632">Jahrzehnt im Zeitraum 1820</tspan></text>
</g></g><g
       id="g242"><g
         clip-path="url(#clipPath248)"
         id="g244"><text
           id="text252"
           style="font-variant:normal;font-weight:normal;font-size:11.03999996px;font-family:Calibri;-inkscape-font-specification:Calibri;writing-mode:lr-tb;fill:#595959;fill-opacity:1;fill-rule:nonzero;stroke:none"
           transform="matrix(1,0,0,-1,269.21,718.97)"><tspan
             id="tspan250"
             y="0"
             x="0">-</tspan></text>
</g></g><g
       id="g254"><g
         clip-path="url(#clipPath260)"
         id="g256"><text
           id="text264"
           style="font-variant:normal;font-weight:normal;font-size:11.03999996px;font-family:Calibri;-inkscape-font-specification:Calibri;writing-mode:lr-tb;fill:#595959;fill-opacity:1;fill-rule:nonzero;stroke:none"
           transform="matrix(1,0,0,-1,272.57,718.97)"><tspan
             id="tspan262"
             y="0"
             x="0 5.6304002 11.2608 16.7808 22.4112 24.575041 29.863199 35.61504 38.982239 41.377918 47.1408 52.638721 56.49168 59.008801 65.014557 70.302719 74.619362 77.158562 81.475197 83.848801 89.611679 95.109596 98.962563">1869 auf der Basis der </tspan></text>
</g></g><g
       id="g266"><g
         clip-path="url(#clipPath272)"
         id="g268"><text
           id="text276"
           style="font-variant:normal;font-weight:normal;font-size:11.03999996px;font-family:Calibri;-inkscape-font-specification:Calibri;writing-mode:lr-tb;fill:#595959;fill-opacity:1;fill-rule:nonzero;stroke:none"
           transform="matrix(1,0,0,-1,195.26,705.53)"><tspan
             id="tspan274"
             y="0"
             x="0 5.49792 9.3508797 12.71808 18.006241 22.32288 26.639521 30.337919 35.868961 41.63184 43.917122 49.668961 53.521919 59.01984 61.55904 65.875679 71.163841 76.90464 81.221283 85.537918 90.20784 96.003838 99.856796 105.35472 107.89392 113.62368 119.1216">erfassten Preisausschreiben</tspan></text>
</g></g><path
       id="path278"
       style="fill:#4472c4;fill-opacity:1;fill-rule:evenodd;stroke:none"
       d="m 111.99,544.39 h 4.9433 v 4.9433 H 111.99 Z" /><g
       id="g280"><g
         clip-path="url(#clipPath286)"
         id="g282"><text
           id="text290"
           style="font-variant:normal;font-weight:normal;font-size:9px;font-family:Calibri;-inkscape-font-specification:Calibri;writing-mode:lr-tb;fill:#595959;fill-opacity:1;fill-rule:nonzero;stroke:none"
           transform="matrix(1,0,0,-1,119.04,544.3)"><tspan
             id="tspan288"
             y="0"
             x="0 4.6799998 9.5220003 16.622999 21.438 26.145 29.736 31.778999 34.793999 36.819 41.633999">Komposition</tspan></text>
</g></g><path
       id="path292"
       style="fill:#ed7d31;fill-opacity:1;fill-rule:evenodd;stroke:none"
       d="m 178.74,544.39 h 4.9433 v 4.9433 H 178.74 Z" /><g
       id="g294"><g
         clip-path="url(#clipPath300)"
         id="g296"><text
           id="text304"
           style="font-variant:normal;font-weight:normal;font-size:9px;font-family:Calibri;-inkscape-font-specification:Calibri;writing-mode:lr-tb;fill:#595959;fill-opacity:1;fill-rule:nonzero;stroke:none"
           transform="matrix(1,0,0,-1,185.81,544.3)"><tspan
             id="tspan302"
             y="0"
             x="0 4.698 9.1800003 12.285 15.03 19.863001 23.004 30.195 34.542 39.266998 43.074001">Performance</tspan></text>
</g></g><path
       id="path306"
       style="fill:#a5a5a5;fill-opacity:1;fill-rule:evenodd;stroke:none"
       d="m 246.69,544.39 h 4.9433 v 4.9433 H 246.69 Z" /><g
       id="g308"><g
         clip-path="url(#clipPath314)"
         id="g310"><text
           id="text318"
           style="font-variant:normal;font-weight:normal;font-size:9px;font-family:Calibri;-inkscape-font-specification:Calibri;writing-mode:lr-tb;fill:#595959;fill-opacity:1;fill-rule:nonzero;stroke:none"
           transform="matrix(1,0,0,-1,253.78,544.3)"><tspan
             id="tspan316"
             y="0"
             x="0 3.5910001 8.2709999 10.305 14.373 18.855 21.951 25.065001 29.745001 34.424999 38.979 43.659 48.446999 52.883999 56.025002 58.058998 62.478001 66.915001 70.758003">zu vertonender Text</tspan></text>
</g></g><path
       id="path320"
       style="fill:#ffc000;fill-opacity:1;fill-rule:evenodd;stroke:none"
       d="m 341.09,544.39 h 4.9433 v 4.9433 H 341.09 Z" /><g
       id="g322"><g
         clip-path="url(#clipPath328)"
         id="g324"><text
           id="text332"
           style="font-variant:normal;font-weight:normal;font-size:9px;font-family:Calibri;-inkscape-font-specification:Calibri;writing-mode:lr-tb;fill:#595959;fill-opacity:1;fill-rule:nonzero;stroke:none"
           transform="matrix(1,0,0,-1,348.19,544.3)"><tspan
             id="tspan330"
             y="0"
             x="0 4.428 8.8649998 12.708 15.822 17.739 22.527 27.207001 31.761 34.902 36.936001 44.604 49.284 52.875 54.917999">Text über Musik</tspan></text>
</g></g><g
       id="g334"><g
         clip-path="url(#clipPath340)"
         id="g336"><path
           id="path342"
           style="fill:none;stroke:#d9d9d9;stroke-width:0.75;stroke-linecap:butt;stroke-linejoin:round;stroke-miterlimit:10;stroke-dasharray:none;stroke-opacity:1"
           d="M 70.85,532.42 H 444.7 V 750.37 H 70.85 Z" /></g></g></g></svg>