<?xml version="1.0" encoding="UTF-8" standalone="no"?>
<svg
   xmlns:dc="http://purl.org/dc/elements/1.1/"
   xmlns:cc="http://creativecommons.org/ns#"
   xmlns:rdf="http://www.w3.org/1999/02/22-rdf-syntax-ns#"
   xmlns:svg="http://www.w3.org/2000/svg"
   xmlns="http://www.w3.org/2000/svg"
   viewBox="94 202 500 200"
   height="563"
   width="781"
   xml:space="preserve"
   id="svg2"
   version="1.1"><metadata
     id="metadata8"><rdf:RDF><cc:Work
         rdf:about=""><dc:format>image/svg+xml</dc:format><dc:type
           rdf:resource="http://purl.org/dc/dcmitype/StillImage" /></cc:Work></rdf:RDF></metadata><defs
     id="defs6"><clipPath
       id="clipPath18"
       clipPathUnits="userSpaceOnUse"><path
         style="clip-rule:evenodd"
         id="path16"
         d="M 8.871e-6,0 H 595.32001 V 841.92 H 8.871e-6 Z" /></clipPath><clipPath
       id="clipPath26"
       clipPathUnits="userSpaceOnUse"><path
         style="clip-rule:evenodd"
         id="path24"
         d="M 8.871e-6,0 H 595.32001 V 841.92 H 8.871e-6 Z" /></clipPath><clipPath
       id="clipPath34"
       clipPathUnits="userSpaceOnUse"><path
         style="clip-rule:evenodd"
         id="path32"
         d="M 8.871e-6,0 H 595.32001 V 841.92 H 8.871e-6 Z" /></clipPath><clipPath
       id="clipPath42"
       clipPathUnits="userSpaceOnUse"><path
         style="clip-rule:evenodd"
         id="path40"
         d="M 0,473.52 H 595.32 V 750.36 H 0 Z" /></clipPath><clipPath
       id="clipPath80"
       clipPathUnits="userSpaceOnUse"><path
         style="clip-rule:evenodd"
         id="path78"
         d="M 70.8,481.2 H 444.6 V 750.36 H 70.8 Z" /></clipPath><clipPath
       id="clipPath92"
       clipPathUnits="userSpaceOnUse"><path
         style="clip-rule:evenodd"
         id="path90"
         d="M 70.8,481.2 H 444.6 V 750.36 H 70.8 Z" /></clipPath><clipPath
       id="clipPath104"
       clipPathUnits="userSpaceOnUse"><path
         style="clip-rule:evenodd"
         id="path102"
         d="M 70.8,481.2 H 444.6 V 750.36 H 70.8 Z" /></clipPath><clipPath
       id="clipPath116"
       clipPathUnits="userSpaceOnUse"><path
         style="clip-rule:evenodd"
         id="path114"
         d="M 70.8,481.2 H 444.6 V 750.36 H 70.8 Z" /></clipPath><clipPath
       id="clipPath128"
       clipPathUnits="userSpaceOnUse"><path
         style="clip-rule:evenodd"
         id="path126"
         d="M 70.8,481.2 H 444.6 V 750.36 H 70.8 Z" /></clipPath><clipPath
       id="clipPath144"
       clipPathUnits="userSpaceOnUse"><path
         style="clip-rule:evenodd"
         id="path142"
         d="M 70.8,481.2 H 444.6 V 750.36 H 70.8 Z" /></clipPath><clipPath
       id="clipPath160"
       clipPathUnits="userSpaceOnUse"><path
         style="clip-rule:evenodd"
         id="path158"
         d="M 70.8,481.2 H 444.6 V 750.36 H 70.8 Z" /></clipPath><clipPath
       id="clipPath176"
       clipPathUnits="userSpaceOnUse"><path
         style="clip-rule:evenodd"
         id="path174"
         d="M 70.8,481.2 H 444.6 V 750.36 H 70.8 Z" /></clipPath><clipPath
       id="clipPath192"
       clipPathUnits="userSpaceOnUse"><path
         style="clip-rule:evenodd"
         id="path190"
         d="M 70.8,481.2 H 444.6 V 750.36 H 70.8 Z" /></clipPath><clipPath
       id="clipPath208"
       clipPathUnits="userSpaceOnUse"><path
         style="clip-rule:evenodd"
         id="path206"
         d="M 70.8,481.2 H 444.6 V 750.36 H 70.8 Z" /></clipPath><clipPath
       id="clipPath224"
       clipPathUnits="userSpaceOnUse"><path
         style="clip-rule:evenodd"
         id="path222"
         d="M 70.8,481.2 H 444.6 V 750.36 H 70.8 Z" /></clipPath><clipPath
       id="clipPath240"
       clipPathUnits="userSpaceOnUse"><path
         style="clip-rule:evenodd"
         id="path238"
         d="M 70.8,481.2 H 444.6 V 750.36 H 70.8 Z" /></clipPath><clipPath
       id="clipPath252"
       clipPathUnits="userSpaceOnUse"><path
         style="clip-rule:evenodd"
         id="path250"
         d="M 0,473.52 H 595.32 V 750.36 H 0 Z" /></clipPath></defs><g
     transform="matrix(1.3333333,0,0,-1.3333333,0,1122.56)"
     id="g10"><g
       id="g12"><g
         clip-path="url(#clipPath18)"
         id="g14" /></g><g
       id="g20"><g
         clip-path="url(#clipPath26)"
         id="g22" /></g><g
       id="g28"><g
         clip-path="url(#clipPath34)"
         id="g30" /></g><g
       id="g36"><g
         clip-path="url(#clipPath42)"
         id="g38"><path
           id="path44"
           style="fill:#ffffff;fill-opacity:1;fill-rule:evenodd;stroke:none"
           d="M 70.85,481.12 H 444.7 V 750.37 H 70.85 Z" /></g></g><path
       id="path46"
       style="fill:#4472c4;fill-opacity:1;fill-rule:evenodd;stroke:none"
       d="m 257.78,690.08 c 39.44,0 71.41,-31.97 71.41,-71.42 0,-39.44 -31.97,-71.41 -71.41,-71.41 -7.54,0 -15.02,1.19 -22.18,3.53 l 22.18,67.88 z" /><path
       id="path48"
       style="fill:none;stroke:#ffffff;stroke-width:1.55999994;stroke-linecap:butt;stroke-linejoin:round;stroke-miterlimit:10;stroke-dasharray:none;stroke-opacity:1"
       d="m 257.78,690.08 c 39.44,0 71.41,-31.97 71.41,-71.42 0,-39.44 -31.97,-71.41 -71.41,-71.41 -7.54,0 -15.02,1.19 -22.18,3.53 l 22.18,67.88 z" /><path
       id="path50"
       style="fill:#ed7d31;fill-opacity:1;fill-rule:evenodd;stroke:none"
       d="m 235.6,550.78 c -21.31,6.96 -38.11,23.51 -45.38,44.71 l 67.56,23.17 z" /><path
       id="path52"
       style="fill:none;stroke:#ffffff;stroke-width:1.55999994;stroke-linecap:butt;stroke-linejoin:round;stroke-miterlimit:10;stroke-dasharray:none;stroke-opacity:1"
       d="m 235.6,550.78 c -21.31,6.96 -38.11,23.51 -45.38,44.71 l 67.56,23.17 z" /><path
       id="path54"
       style="fill:#a5a5a5;fill-opacity:1;fill-rule:evenodd;stroke:none"
       d="m 190.22,595.49 c -5.75,16.76 -5.06,35.05 1.92,51.33 l 65.64,-28.16 z" /><path
       id="path56"
       style="fill:none;stroke:#ffffff;stroke-width:1.55999994;stroke-linecap:butt;stroke-linejoin:round;stroke-miterlimit:10;stroke-dasharray:none;stroke-opacity:1"
       d="m 190.22,595.49 c -5.75,16.76 -5.06,35.05 1.92,51.33 l 65.64,-28.16 z" /><path
       id="path58"
       style="fill:#ffc000;fill-opacity:1;fill-rule:evenodd;stroke:none"
       d="m 192.14,646.82 c 3.93,9.15 9.73,17.38 17.02,24.16 l 48.62,-52.32 z" /><path
       id="path60"
       style="fill:none;stroke:#ffffff;stroke-width:1.55999994;stroke-linecap:butt;stroke-linejoin:round;stroke-miterlimit:10;stroke-dasharray:none;stroke-opacity:1"
       d="m 192.14,646.82 c 3.93,9.15 9.73,17.38 17.02,24.16 l 48.62,-52.32 z" /><path
       id="path62"
       style="fill:#5b9bd5;fill-opacity:1;fill-rule:evenodd;stroke:none"
       d="m 209.16,670.98 c 7.52,6.99 16.46,12.28 26.21,15.5 l 22.41,-67.82 z" /><path
       id="path64"
       style="fill:none;stroke:#ffffff;stroke-width:1.55999994;stroke-linecap:butt;stroke-linejoin:round;stroke-miterlimit:10;stroke-dasharray:none;stroke-opacity:1"
       d="m 209.16,670.98 c 7.52,6.99 16.46,12.28 26.21,15.5 l 22.41,-67.82 z" /><path
       id="path66"
       style="fill:#70ad47;fill-opacity:1;fill-rule:evenodd;stroke:none"
       d="m 235.37,686.48 c 6.05,1.99 12.33,3.17 18.69,3.5 l 3.72,-71.32 z" /><path
       id="path68"
       style="fill:none;stroke:#ffffff;stroke-width:1.55999994;stroke-linecap:butt;stroke-linejoin:round;stroke-miterlimit:10;stroke-dasharray:none;stroke-opacity:1"
       d="m 235.37,686.48 c 6.05,1.99 12.33,3.17 18.69,3.5 l 3.72,-71.32 z" /><path
       id="path70"
       style="fill:#264478;fill-opacity:1;fill-rule:evenodd;stroke:none"
       d="m 254.06,689.98 c 1.24,0.07 2.47,0.1 3.72,0.1 v -71.42 z" /><path
       id="path72"
       style="fill:none;stroke:#ffffff;stroke-width:1.55999994;stroke-linecap:butt;stroke-linejoin:round;stroke-miterlimit:10;stroke-dasharray:none;stroke-opacity:1"
       d="m 254.06,689.98 c 1.24,0.07 2.47,0.1 3.72,0.1 v -71.42 z" /><g
       id="g74"><g
         clip-path="url(#clipPath80)"
         id="g76"><text
           id="text84"
           style="font-variant:normal;font-weight:normal;font-size:11.03999996px;font-family:Calibri;-inkscape-font-specification:Calibri;writing-mode:lr-tb;fill:#595959;fill-opacity:1;fill-rule:nonzero;stroke:none"
           transform="matrix(1,0,0,-1,167.66,732.41)"><tspan
             id="tspan82"
             y="0"
             x="0 6.8337598 9.3729601 14.66112 19.79472 23.64768 28.935841 37.778881 46.644001 48.929279 54.559681 57.551521 59.8368 65.588638 69.441597 75.292801 79.609444 85.107361 90.903358 94.601761 100.39776 105.6528 108.192 113.68992 115.9752 122.23488 127.7328 131.58575 135.28416 140.80415 143.34335 145.84944 151.61232 157.3752 162.53088 164.92656 170.68944 176.18736 180.04031">Diagramm 7: Prozentuale Verteilung der </tspan></text>
</g></g><g
       id="g86"><g
         clip-path="url(#clipPath92)"
         id="g88"><text
           id="text96"
           style="font-variant:normal;font-weight:normal;font-size:11.03999996px;font-family:Calibri;-inkscape-font-specification:Calibri;writing-mode:lr-tb;fill:#595959;fill-opacity:1;fill-rule:nonzero;stroke:none"
           transform="matrix(1,0,0,-1,123.02,718.97)"><tspan
             id="tspan94"
             y="0"
             x="0 7.8936 13.42464 17.123039 20.854561 26.617439 32.11536 40.04208 45.540001 49.39296 55.188961 59.5056 64.793762 70.523521 74.840157 79.156799 83.826721 89.622719 93.475677 98.973602 101.5128 107.24256 112.74048 118.53648 124.27728 129.77521 135.5712 137.60255 147.42816 152.94817 156.64656 160.37808 166.14096 171.63889 179.5656 185.06352 188.91647 194.71248 199.02911 204.31728 210.04704 214.36368 218.68031 223.35023 229.14624 232.99921 238.49712 241.03632 246.76608 252.26401 258.06 263.80081 269.29871">wettbewerbsausschreibenden Wettbewerbsausschreibende </tspan></text>
</g></g><g
       id="g98"><g
         clip-path="url(#clipPath104)"
         id="g100"><text
           id="text108"
           style="font-variant:normal;font-weight:normal;font-size:11.03999996px;font-family:Calibri;-inkscape-font-specification:Calibri;writing-mode:lr-tb;fill:#595959;fill-opacity:1;fill-rule:nonzero;stroke:none"
           transform="matrix(1,0,0,-1,177.86,705.53)"><tspan
             id="tspan106"
             y="0"
             x="0 2.7820799 8.5228796 12.83952 16.53792 19.07712 22.77552 28.57152 32.26992 34.80912 40.67136 46.434238 51.932159 57.728161 59.99136 64.296959 66.792 72.565918 78.063843 81.916801 86.233437 92.11776 97.880638 103.37856 109.17456 111.31632 116.94672 122.57712 128.20752">Institutionen / Personen 1820</tspan></text>
</g></g><g
       id="g110"><g
         clip-path="url(#clipPath116)"
         id="g112"><text
           id="text120"
           style="font-variant:normal;font-weight:normal;font-size:11.03999996px;font-family:Calibri;-inkscape-font-specification:Calibri;writing-mode:lr-tb;fill:#595959;fill-opacity:1;fill-rule:nonzero;stroke:none"
           transform="matrix(1,0,0,-1,311.81,705.53)"><tspan
             id="tspan118"
             y="0"
             x="0">-</tspan></text>
</g></g><g
       id="g122"><g
         clip-path="url(#clipPath128)"
         id="g124"><text
           id="text132"
           style="font-variant:normal;font-weight:normal;font-size:11.03999996px;font-family:Calibri;-inkscape-font-specification:Calibri;writing-mode:lr-tb;fill:#595959;fill-opacity:1;fill-rule:nonzero;stroke:none"
           transform="matrix(1,0,0,-1,315.17,705.53)"><tspan
             id="tspan130"
             y="0"
             x="0 5.6399798 11.27996 16.919941">1870</tspan></text>
</g></g><path
       id="path134"
       style="fill:#4472c4;fill-opacity:1;fill-rule:evenodd;stroke:none"
       d="m 111.69,525.34 h 4.9433 v 4.9433 H 111.69 Z" /><path
       id="path136"
       style="fill:none;stroke:#ffffff;stroke-width:1.5;stroke-linecap:butt;stroke-linejoin:round;stroke-miterlimit:10;stroke-dasharray:none;stroke-opacity:1"
       d="m 111.69,525.34 h 4.9433 v 4.9433 H 111.69 Z" /><g
       id="g138"><g
         clip-path="url(#clipPath144)"
         id="g140"><text
           id="text148"
           style="font-variant:normal;font-weight:normal;font-size:9px;font-family:Calibri;-inkscape-font-specification:Calibri;writing-mode:lr-tb;fill:#595959;fill-opacity:1;fill-rule:nonzero;stroke:none"
           transform="matrix(1,0,0,-1,118.75,525.24)"><tspan
             id="tspan146"
             y="0"
             x="0 5.6430001 10.197 13.68 18.117001 20.268 22.311001 25.794001 29.628 34.307999 38.618999 41.363998 44.379002 48.825001 53.612999 55.646999 59.120998 61.154999 66.212997 70.766998 73.907997 78.327003 80.370003 85.157997">Gesellschaften / Vereine</tspan></text>
</g></g><path
       id="path150"
       style="fill:#ed7d31;fill-opacity:1;fill-rule:evenodd;stroke:none"
       d="m 211.23,525.34 h 4.9433 v 4.9433 H 211.23 Z" /><path
       id="path152"
       style="fill:none;stroke:#ffffff;stroke-width:1.5;stroke-linecap:butt;stroke-linejoin:round;stroke-miterlimit:10;stroke-dasharray:none;stroke-opacity:1"
       d="m 211.23,525.34 h 4.9433 v 4.9433 H 211.23 Z" /><g
       id="g154"><g
         clip-path="url(#clipPath160)"
         id="g156"><text
           id="text164"
           style="font-variant:normal;font-weight:normal;font-size:9px;font-family:Calibri;-inkscape-font-specification:Calibri;writing-mode:lr-tb;fill:#595959;fill-opacity:1;fill-rule:nonzero;stroke:none"
           transform="matrix(1,0,0,-1,218.3,525.24)"><tspan
             id="tspan162"
             y="0"
             x="0 4.428 6.4710002 11.151 14.742 19.179001 21.222 26.01 30.447001 33.588001 37.160999 41.841 46.629002 51.066002">Einzelpersonen</tspan></text>
</g></g><path
       id="path166"
       style="fill:#a5a5a5;fill-opacity:1;fill-rule:evenodd;stroke:none"
       d="m 310.77,525.34 h 4.9433 v 4.9433 H 310.77 Z" /><path
       id="path168"
       style="fill:none;stroke:#ffffff;stroke-width:1.5;stroke-linecap:butt;stroke-linejoin:round;stroke-miterlimit:10;stroke-dasharray:none;stroke-opacity:1"
       d="m 310.77,525.34 h 4.9433 v 4.9433 H 310.77 Z" /><g
       id="g170"><g
         clip-path="url(#clipPath176)"
         id="g172"><text
           id="text180"
           style="font-variant:normal;font-weight:normal;font-size:9px;font-family:Calibri;-inkscape-font-specification:Calibri;writing-mode:lr-tb;fill:#595959;fill-opacity:1;fill-rule:nonzero;stroke:none"
           transform="matrix(1,0,0,-1,317.86,525.24)"><tspan
             id="tspan178"
             y="0"
             x="0 4.0770001 7.191 11.502 16.191 19.205999 23.634001 25.667999 29.142 31.176001 36.945 41.382 48.573002 53.019001 55.062 59.849998 64.529999 69.084">Städte / Gemeinden</tspan></text>
</g></g><path
       id="path182"
       style="fill:#ffc000;fill-opacity:1;fill-rule:evenodd;stroke:none"
       d="m 111.69,508.46 h 4.9433 v 4.9433 H 111.69 Z" /><path
       id="path184"
       style="fill:none;stroke:#ffffff;stroke-width:1.5;stroke-linecap:butt;stroke-linejoin:round;stroke-miterlimit:10;stroke-dasharray:none;stroke-opacity:1"
       d="m 111.69,508.46 h 4.9433 v 4.9433 H 111.69 Z" /><g
       id="g186"><g
         clip-path="url(#clipPath192)"
         id="g188"><text
           id="text196"
           style="font-variant:normal;font-weight:normal;font-size:9.02400017px;font-family:Calibri;-inkscape-font-specification:Calibri;writing-mode:lr-tb;fill:#595959;fill-opacity:1;fill-rule:nonzero;stroke:none"
           transform="matrix(1,0,0,-1,118.75,508.37)"><tspan
             id="tspan194"
             y="0"
             x="0 5.1527038 9.5925121 12.714816 14.75424 19.076736 23.272896 27.820992 29.860416 33.343681 35.383102 39.606335 44.019073 46.058495 49.081535 52.646015 56.463169 61.164673 64.28698 66.326401 69.07872 72.101761 76.640831">Verlage / Zeitschriften</tspan></text>
</g></g><path
       id="path198"
       style="fill:#5b9bd5;fill-opacity:1;fill-rule:evenodd;stroke:none"
       d="m 211.23,508.46 h 4.9433 v 4.9433 H 211.23 Z" /><path
       id="path200"
       style="fill:none;stroke:#ffffff;stroke-width:1.5;stroke-linecap:butt;stroke-linejoin:round;stroke-miterlimit:10;stroke-dasharray:none;stroke-opacity:1"
       d="m 211.23,508.46 h 4.9433 v 4.9433 H 211.23 Z" /><g
       id="g202"><g
         clip-path="url(#clipPath208)"
         id="g204"><text
           id="text212"
           style="font-variant:normal;font-weight:normal;font-size:9.02400017px;font-family:Calibri;-inkscape-font-specification:Calibri;writing-mode:lr-tb;fill:#595959;fill-opacity:1;fill-rule:nonzero;stroke:none"
           transform="matrix(1,0,0,-1,218.3,508.37)"><tspan
             id="tspan210"
             y="0"
             x="0 4.6924801 9.4751997 14.158656 17.64192 22.190016 25.312321 29.391169 33.713665 36.736706 41.393089 44.515392 46.663105 51.102913">Konservatorien</tspan></text>
</g></g><path
       id="path214"
       style="fill:#70ad47;fill-opacity:1;fill-rule:evenodd;stroke:none"
       d="m 310.77,508.46 h 4.9433 v 4.9433 H 310.77 Z" /><path
       id="path216"
       style="fill:none;stroke:#ffffff;stroke-width:1.5;stroke-linecap:butt;stroke-linejoin:round;stroke-miterlimit:10;stroke-dasharray:none;stroke-opacity:1"
       d="m 310.77,508.46 h 4.9433 v 4.9433 H 310.77 Z" /><g
       id="g218"><g
         clip-path="url(#clipPath224)"
         id="g220"><text
           id="text228"
           style="font-variant:normal;font-weight:normal;font-size:9.02400017px;font-family:Calibri;-inkscape-font-specification:Calibri;writing-mode:lr-tb;fill:#595959;fill-opacity:1;fill-rule:nonzero;stroke:none"
           transform="matrix(1,0,0,-1,317.86,508.37)"><tspan
             id="tspan226"
             y="0"
             x="0 4.900032 9.3578882 13.554048 15.70176 20.141567 23.263872 27.947329 32.739071 36.93523 38.974655 42.45792 44.497345 49.406399 53.855232 58.646976 63.330433 66.452736 71.244476 75.684288">Regierung / Behörden</tspan></text>
</g></g><path
       id="path230"
       style="fill:#264478;fill-opacity:1;fill-rule:evenodd;stroke:none"
       d="m 111.69,491.59 h 4.9433 v 4.9433 H 111.69 Z" /><path
       id="path232"
       style="fill:none;stroke:#ffffff;stroke-width:1.5;stroke-linecap:butt;stroke-linejoin:round;stroke-miterlimit:10;stroke-dasharray:none;stroke-opacity:1"
       d="m 111.69,491.59 h 4.9433 v 4.9433 H 111.69 Z" /><g
       id="g234"><g
         clip-path="url(#clipPath240)"
         id="g236"><text
           id="text244"
           style="font-variant:normal;font-weight:normal;font-size:9px;font-family:Calibri;-inkscape-font-specification:Calibri;writing-mode:lr-tb;fill:#595959;fill-opacity:1;fill-rule:nonzero;stroke:none"
           transform="matrix(1,0,0,-1,118.75,491.47)"><tspan
             id="tspan242"
             y="0"
             x="0 4.0949998 6.1199999 9.2609997 13.068 17.874001 19.917 21.959999 25.794001 30.474001 34.910999 36.945 39.213001 44.019001 47.501999 50.516998 52.542 55.655998 60.335999 63.351002 65.375999 70.164001 74.844002 79.398003">kirchliche Institutionen</tspan></text>
</g></g><g
       id="g246"><g
         clip-path="url(#clipPath252)"
         id="g248"><path
           id="path254"
           style="fill:none;stroke:#d9d9d9;stroke-width:0.75;stroke-linecap:butt;stroke-linejoin:round;stroke-miterlimit:10;stroke-dasharray:none;stroke-opacity:1"
           d="M 70.85,481.12 H 444.7 V 750.37 H 70.85 Z" /></g></g></g></svg>