<?xml version="1.0" encoding="UTF-8" standalone="no"?>
<svg
   xmlns:dc="http://purl.org/dc/elements/1.1/"
   xmlns:cc="http://creativecommons.org/ns#"
   xmlns:rdf="http://www.w3.org/1999/02/22-rdf-syntax-ns#"
   xmlns:svg="http://www.w3.org/2000/svg"
   xmlns="http://www.w3.org/2000/svg"
   viewBox="94 202 500 200"
   height="563"
   width="781"
   xml:space="preserve"
   id="svg2"
   version="1.1"><metadata
     id="metadata8"><rdf:RDF><cc:Work
         rdf:about=""><dc:format>image/svg+xml</dc:format><dc:type
           rdf:resource="http://purl.org/dc/dcmitype/StillImage" /></cc:Work></rdf:RDF></metadata><defs
     id="defs6"><clipPath
       id="clipPath18"
       clipPathUnits="userSpaceOnUse"><path
         style="clip-rule:evenodd"
         id="path16"
         d="M 8.871e-6,0 H 595.32001 V 841.92 H 8.871e-6 Z" /></clipPath><clipPath
       id="clipPath26"
       clipPathUnits="userSpaceOnUse"><path
         style="clip-rule:evenodd"
         id="path24"
         d="M 8.871e-6,0 H 595.32001 V 841.92 H 8.871e-6 Z" /></clipPath><clipPath
       id="clipPath34"
       clipPathUnits="userSpaceOnUse"><path
         style="clip-rule:evenodd"
         id="path32"
         d="M 0,473.52 H 595.32 V 750.36 H 0 Z" /></clipPath><clipPath
       id="clipPath80"
       clipPathUnits="userSpaceOnUse"><path
         style="clip-rule:evenodd"
         id="path78"
         d="M 70.8,481.2 H 444.6 V 750.36 H 70.8 Z" /></clipPath><clipPath
       id="clipPath92"
       clipPathUnits="userSpaceOnUse"><path
         style="clip-rule:evenodd"
         id="path90"
         d="M 70.8,481.2 H 444.6 V 750.36 H 70.8 Z" /></clipPath><clipPath
       id="clipPath104"
       clipPathUnits="userSpaceOnUse"><path
         style="clip-rule:evenodd"
         id="path102"
         d="M 70.8,481.2 H 444.6 V 750.36 H 70.8 Z" /></clipPath><clipPath
       id="clipPath116"
       clipPathUnits="userSpaceOnUse"><path
         style="clip-rule:evenodd"
         id="path114"
         d="M 70.8,481.2 H 444.6 V 750.36 H 70.8 Z" /></clipPath><clipPath
       id="clipPath128"
       clipPathUnits="userSpaceOnUse"><path
         style="clip-rule:evenodd"
         id="path126"
         d="M 70.8,481.2 H 444.6 V 750.36 H 70.8 Z" /></clipPath><clipPath
       id="clipPath144"
       clipPathUnits="userSpaceOnUse"><path
         style="clip-rule:evenodd"
         id="path142"
         d="M 70.8,481.2 H 444.6 V 750.36 H 70.8 Z" /></clipPath><clipPath
       id="clipPath160"
       clipPathUnits="userSpaceOnUse"><path
         style="clip-rule:evenodd"
         id="path158"
         d="M 70.8,481.2 H 444.6 V 750.36 H 70.8 Z" /></clipPath><clipPath
       id="clipPath176"
       clipPathUnits="userSpaceOnUse"><path
         style="clip-rule:evenodd"
         id="path174"
         d="M 70.8,481.2 H 444.6 V 750.36 H 70.8 Z" /></clipPath><clipPath
       id="clipPath192"
       clipPathUnits="userSpaceOnUse"><path
         style="clip-rule:evenodd"
         id="path190"
         d="M 70.8,481.2 H 444.6 V 750.36 H 70.8 Z" /></clipPath><clipPath
       id="clipPath208"
       clipPathUnits="userSpaceOnUse"><path
         style="clip-rule:evenodd"
         id="path206"
         d="M 70.8,481.2 H 444.6 V 750.36 H 70.8 Z" /></clipPath><clipPath
       id="clipPath224"
       clipPathUnits="userSpaceOnUse"><path
         style="clip-rule:evenodd"
         id="path222"
         d="M 70.8,481.2 H 444.6 V 750.36 H 70.8 Z" /></clipPath><clipPath
       id="clipPath240"
       clipPathUnits="userSpaceOnUse"><path
         style="clip-rule:evenodd"
         id="path238"
         d="M 70.8,481.2 H 444.6 V 750.36 H 70.8 Z" /></clipPath><clipPath
       id="clipPath256"
       clipPathUnits="userSpaceOnUse"><path
         style="clip-rule:evenodd"
         id="path254"
         d="M 70.8,481.2 H 444.6 V 750.36 H 70.8 Z" /></clipPath><clipPath
       id="clipPath272"
       clipPathUnits="userSpaceOnUse"><path
         style="clip-rule:evenodd"
         id="path270"
         d="M 70.8,481.2 H 444.6 V 750.36 H 70.8 Z" /></clipPath><clipPath
       id="clipPath284"
       clipPathUnits="userSpaceOnUse"><path
         style="clip-rule:evenodd"
         id="path282"
         d="M 0,473.52 H 595.32 V 750.36 H 0 Z" /></clipPath></defs><g
     transform="matrix(1.3333333,0,0,-1.3333333,0,1122.56)"
     id="g10"><g
       id="g12"><g
         clip-path="url(#clipPath18)"
         id="g14" /></g><g
       id="g20"><g
         clip-path="url(#clipPath26)"
         id="g22" /></g><g
       id="g28"><g
         clip-path="url(#clipPath34)"
         id="g30"><path
           id="path36"
           style="fill:#ffffff;fill-opacity:1;fill-rule:evenodd;stroke:none"
           d="M 70.85,481.12 H 444.7 V 750.37 H 70.85 Z" /></g></g><path
       id="path38"
       style="fill:#4472c4;fill-opacity:1;fill-rule:evenodd;stroke:none"
       d="m 257.78,690.08 c 38.94,0 70.51,-31.57 70.51,-70.51 0,-29.04 -17.81,-55.11 -44.85,-65.68 l -25.66,65.68 z" /><path
       id="path40"
       style="fill:none;stroke:#ffffff;stroke-width:1.55999994;stroke-linecap:butt;stroke-linejoin:round;stroke-miterlimit:10;stroke-dasharray:none;stroke-opacity:1"
       d="m 257.78,690.08 c 38.94,0 70.51,-31.57 70.51,-70.51 0,-29.04 -17.81,-55.11 -44.85,-65.68 l -25.66,65.68 z" /><path
       id="path42"
       style="fill:#ed7d31;fill-opacity:1;fill-rule:evenodd;stroke:none"
       d="m 283.44,553.89 c -30.03,-11.73 -64.19,-1.6 -82.98,24.6 l 57.32,41.08 z" /><path
       id="path44"
       style="fill:none;stroke:#ffffff;stroke-width:1.55999994;stroke-linecap:butt;stroke-linejoin:round;stroke-miterlimit:10;stroke-dasharray:none;stroke-opacity:1"
       d="m 283.44,553.89 c -30.03,-11.73 -64.19,-1.6 -82.98,24.6 l 57.32,41.08 z" /><path
       id="path46"
       style="fill:#a5a5a5;fill-opacity:1;fill-rule:evenodd;stroke:none"
       d="m 200.46,578.49 c -11.78,16.45 -15.94,37.16 -11.4,56.88 l 68.72,-15.8 z" /><path
       id="path48"
       style="fill:none;stroke:#ffffff;stroke-width:1.55999994;stroke-linecap:butt;stroke-linejoin:round;stroke-miterlimit:10;stroke-dasharray:none;stroke-opacity:1"
       d="m 200.46,578.49 c -11.78,16.45 -15.94,37.16 -11.4,56.88 l 68.72,-15.8 z" /><path
       id="path50"
       style="fill:#ffc000;fill-opacity:1;fill-rule:evenodd;stroke:none"
       d="m 189.06,635.37 c 4.27,18.59 15.89,34.65 32.21,44.52 l 36.51,-60.32 z" /><path
       id="path52"
       style="fill:none;stroke:#ffffff;stroke-width:1.55999994;stroke-linecap:butt;stroke-linejoin:round;stroke-miterlimit:10;stroke-dasharray:none;stroke-opacity:1"
       d="m 189.06,635.37 c 4.27,18.59 15.89,34.65 32.21,44.52 l 36.51,-60.32 z" /><path
       id="path54"
       style="fill:#5b9bd5;fill-opacity:1;fill-rule:evenodd;stroke:none"
       d="m 221.27,679.89 c 6.24,3.78 13.04,6.57 20.14,8.27 l 16.37,-68.59 z" /><path
       id="path56"
       style="fill:none;stroke:#ffffff;stroke-width:1.55999994;stroke-linecap:butt;stroke-linejoin:round;stroke-miterlimit:10;stroke-dasharray:none;stroke-opacity:1"
       d="m 221.27,679.89 c 6.24,3.78 13.04,6.57 20.14,8.27 l 16.37,-68.59 z" /><path
       id="path58"
       style="fill:#70ad47;fill-opacity:1;fill-rule:evenodd;stroke:none"
       d="m 241.41,688.16 c 2.67,0.63 5.38,1.11 8.1,1.44 l 8.27,-70.03 z" /><path
       id="path60"
       style="fill:none;stroke:#ffffff;stroke-width:1.55999994;stroke-linecap:butt;stroke-linejoin:round;stroke-miterlimit:10;stroke-dasharray:none;stroke-opacity:1"
       d="m 241.41,688.16 c 2.67,0.63 5.38,1.11 8.1,1.44 l 8.27,-70.03 z" /><path
       id="path62"
       style="fill:#264478;fill-opacity:1;fill-rule:evenodd;stroke:none"
       d="m 249.51,689.6 c 1.26,0.14 2.51,0.26 3.77,0.34 l 4.5,-70.37 z" /><path
       id="path64"
       style="fill:none;stroke:#ffffff;stroke-width:1.55999994;stroke-linecap:butt;stroke-linejoin:round;stroke-miterlimit:10;stroke-dasharray:none;stroke-opacity:1"
       d="m 249.51,689.6 c 1.26,0.14 2.51,0.26 3.77,0.34 l 4.5,-70.37 z" /><path
       id="path66"
       style="fill:#9e480e;fill-opacity:1;fill-rule:evenodd;stroke:none"
       d="m 253.28,689.94 c 0.05,0 0.09,0 0.14,0.01 l 4.36,-70.38 z" /><path
       id="path68"
       style="fill:none;stroke:#ffffff;stroke-width:1.55999994;stroke-linecap:butt;stroke-linejoin:round;stroke-miterlimit:10;stroke-dasharray:none;stroke-opacity:1"
       d="m 253.28,689.94 c 0.05,0 0.09,0 0.14,0.01 l 4.36,-70.38 z" /><path
       id="path70"
       style="fill:#636363;fill-opacity:1;fill-rule:evenodd;stroke:none"
       d="m 253.42,689.95 c 1.45,0.09 2.9,0.13 4.36,0.13 v -70.51 z" /><path
       id="path72"
       style="fill:none;stroke:#ffffff;stroke-width:1.55999994;stroke-linecap:butt;stroke-linejoin:round;stroke-miterlimit:10;stroke-dasharray:none;stroke-opacity:1"
       d="m 253.42,689.95 c 1.45,0.09 2.9,0.13 4.36,0.13 v -70.51 z" /><g
       id="g74"><g
         clip-path="url(#clipPath80)"
         id="g76"><text
           id="text84"
           style="font-variant:normal;font-weight:normal;font-size:11.03999996px;font-family:Calibri;-inkscape-font-specification:Calibri;writing-mode:lr-tb;fill:#595959;fill-opacity:1;fill-rule:nonzero;stroke:none"
           transform="matrix(1,0,0,-1,112.94,732.41)"><tspan
             id="tspan82"
             y="0"
             x="0 6.8337598 9.3729601 14.66112 19.79472 23.64768 28.935841 37.778881 46.644001 48.929279 54.559681 57.551521 59.8368 65.588638 69.441597 75.292801 79.609444 85.107361 90.903358 94.601761 100.39776 105.6528 108.192 113.68992 115.9752 122.23488 127.7328 131.58575 135.28416 140.80415 143.34335 145.84944 151.61232 157.3752 162.53088 164.92656 170.68944 176.18736 180.04031 182.55743 188.5632 194.06113 197.91408 203.71008 207.03313 211.34976 215.67744 221.44032 226.59599 232.09392 237.88992 243.74112 247.59409 250.13329 255.25584 260.27905 265.81009 268.34927 272.04767 274.33295 280.09583 285.59375 289.44672">Diagramm 8: Prozentuale Verteilung der Berufszugehörigkeit der </tspan></text>
</g></g><g
       id="g86"><g
         clip-path="url(#clipPath92)"
         id="g88"><text
           id="text96"
           style="font-variant:normal;font-weight:normal;font-size:11.03999996px;font-family:Calibri;-inkscape-font-specification:Calibri;writing-mode:lr-tb;fill:#595959;fill-opacity:1;fill-rule:nonzero;stroke:none"
           transform="matrix(1,0,0,-1,138.02,718.97)"><tspan
             id="tspan94"
             y="0"
             x="0 5.7518401 11.24976 15.10272 19.419359 25.30368 31.066561 36.56448 42.360481 45.12048 47.383678 53.146561 55.68576 61.183681 63.590401 68.878563 77.743683 80.139359 87.447838 91.300797 97.063683 102.82656 108.32448 114.21984">Personen, die am Orphéon</tspan></text>
</g></g><g
       id="g98"><g
         clip-path="url(#clipPath104)"
         id="g100"><text
           id="text108"
           style="font-variant:normal;font-weight:normal;font-size:11.03999996px;font-family:Calibri;-inkscape-font-specification:Calibri;writing-mode:lr-tb;fill:#595959;fill-opacity:1;fill-rule:nonzero;stroke:none"
           transform="matrix(1,0,0,-1,258.05,718.97)"><tspan
             id="tspan106"
             y="0"
             x="0">-</tspan></text>
</g></g><g
       id="g110"><g
         clip-path="url(#clipPath116)"
         id="g112"><text
           id="text120"
           style="font-variant:normal;font-weight:normal;font-size:11.03999996px;font-family:Calibri;-inkscape-font-specification:Calibri;writing-mode:lr-tb;fill:#595959;fill-opacity:1;fill-rule:nonzero;stroke:none"
           transform="matrix(1,0,0,-1,261.41,718.97)"><tspan
             id="tspan118"
             y="0"
             x="0 9.8255997 15.3456 19.044001 22.77552 28.538401 34.03632 41.963039 47.46096 51.313919 57.109921 59.240639 64.87104 70.501442 76.131844 81.762238 83.926079 86.465279 92.206078 94.701118 99.39312 104.42736 110.30064 116.06352">Wettbewerb 1864 in Lyon </tspan></text>
</g></g><g
       id="g122"><g
         clip-path="url(#clipPath128)"
         id="g124"><text
           id="text132"
           style="font-variant:normal;font-weight:normal;font-size:11.03999996px;font-family:Calibri;-inkscape-font-specification:Calibri;writing-mode:lr-tb;fill:#595959;fill-opacity:1;fill-rule:nonzero;stroke:none"
           transform="matrix(1,0,0,-1,209.78,705.53)"><tspan
             id="tspan130"
             y="0"
             x="0 3.6984 9.2515202 11.79072 14.2968 19.496639 24.99456 30.79056 36.69696 45.5952 54.493439 60.024479 65.82048 67.973282 73.769279 79.057442 84.853439 90.373444">teilgenommen haben</tspan></text>
</g></g><path
       id="path134"
       style="fill:#4472c4;fill-opacity:1;fill-rule:evenodd;stroke:none"
       d="m 116.15,526.71 h 5.2178 v 5.2178 H 116.15 Z" /><path
       id="path136"
       style="fill:none;stroke:#ffffff;stroke-width:1.5;stroke-linecap:butt;stroke-linejoin:round;stroke-miterlimit:10;stroke-dasharray:none;stroke-opacity:1"
       d="m 116.15,526.71 h 5.2178 v 5.2178 H 116.15 Z" /><g
       id="g138"><g
         clip-path="url(#clipPath144)"
         id="g140"><text
           id="text148"
           style="font-variant:normal;font-weight:normal;font-size:9.50399971px;font-family:Calibri;-inkscape-font-specification:Calibri;writing-mode:lr-tb;fill:#595959;fill-opacity:1;fill-rule:nonzero;stroke:none"
           transform="matrix(1,0,0,-1,123.62,526.61)"><tspan
             id="tspan146"
             y="0"
             x="0 5.8829761 10.435392 15.472512 20.395584 27.22896 31.904928 35.259838 39.58416 44.260128">Handwerker</tspan></text>
</g></g><path
       id="path150"
       style="fill:#ed7d31;fill-opacity:1;fill-rule:evenodd;stroke:none"
       d="m 212.81,526.71 h 5.2178 v 5.2178 H 212.81 Z" /><path
       id="path152"
       style="fill:none;stroke:#ffffff;stroke-width:1.5;stroke-linecap:butt;stroke-linejoin:round;stroke-miterlimit:10;stroke-dasharray:none;stroke-opacity:1"
       d="m 212.81,526.71 h 5.2178 v 5.2178 H 212.81 Z" /><g
       id="g154"><g
         clip-path="url(#clipPath160)"
         id="g156"><text
           id="text164"
           style="font-variant:normal;font-weight:normal;font-size:9.50399971px;font-family:Calibri;-inkscape-font-specification:Calibri;writing-mode:lr-tb;fill:#595959;fill-opacity:1;fill-rule:nonzero;stroke:none"
           transform="matrix(1,0,0,-1,220.3,526.61)"><tspan
             id="tspan162"
             y="0"
             x="0 4.94208 7.0804801 11.870496 14.056416 18.950975 23.978592 29.006208 32.24707 36.68544 41.475456 44.71632 47.947681 52.87075">Kleinbürgertum</tspan></text>
</g></g><path
       id="path166"
       style="fill:#a5a5a5;fill-opacity:1;fill-rule:evenodd;stroke:none"
       d="m 309.46,526.71 h 5.2178 v 5.2178 H 309.46 Z" /><path
       id="path168"
       style="fill:none;stroke:#ffffff;stroke-width:1.5;stroke-linecap:butt;stroke-linejoin:round;stroke-miterlimit:10;stroke-dasharray:none;stroke-opacity:1"
       d="m 309.46,526.71 h 5.2178 v 5.2178 H 309.46 Z" /><g
       id="g170"><g
         clip-path="url(#clipPath176)"
         id="g172"><text
           id="text180"
           style="font-variant:normal;font-weight:normal;font-size:9.50399971px;font-family:Calibri;-inkscape-font-specification:Calibri;writing-mode:lr-tb;fill:#595959;fill-opacity:1;fill-rule:nonzero;stroke:none"
           transform="matrix(1,0,0,-1,316.97,526.61)"><tspan
             id="tspan178"
             y="0"
             x="0 3.9631679 8.515584 13.552704 18.475777 25.309153 27.495071 30.811968 33.948288">Landwirte</tspan></text>
</g></g><path
       id="path182"
       style="fill:#ffc000;fill-opacity:1;fill-rule:evenodd;stroke:none"
       d="m 116.15,509.23 h 5.2178 v 5.2178 H 116.15 Z" /><path
       id="path184"
       style="fill:none;stroke:#ffffff;stroke-width:1.5;stroke-linecap:butt;stroke-linejoin:round;stroke-miterlimit:10;stroke-dasharray:none;stroke-opacity:1"
       d="m 116.15,509.23 h 5.2178 v 5.2178 H 116.15 Z" /><g
       id="g186"><g
         clip-path="url(#clipPath192)"
         id="g188"><text
           id="text196"
           style="font-variant:normal;font-weight:normal;font-size:9.47999954px;font-family:Calibri;-inkscape-font-specification:Calibri;writing-mode:lr-tb;fill:#595959;fill-opacity:1;fill-rule:nonzero;stroke:none"
           transform="matrix(1,0,0,-1,123.62,509.11)"><tspan
             id="tspan194"
             y="0"
             x="0 4.4650798 9.2335196 14.15364 19.187519 24.221399 28.90452 33.9384 38.621521 42.328201 44.489639 49.646759 54.566879 57.913319 62.378399 67.146843 70.389 73.621681 78.541801">gehobenes Bürgertum</tspan></text>
</g></g><path
       id="path198"
       style="fill:#5b9bd5;fill-opacity:1;fill-rule:evenodd;stroke:none"
       d="m 212.81,509.23 h 5.2178 v 5.2178 H 212.81 Z" /><path
       id="path200"
       style="fill:none;stroke:#ffffff;stroke-width:1.5;stroke-linecap:butt;stroke-linejoin:round;stroke-miterlimit:10;stroke-dasharray:none;stroke-opacity:1"
       d="m 212.81,509.23 h 5.2178 v 5.2178 H 212.81 Z" /><g
       id="g202"><g
         clip-path="url(#clipPath208)"
         id="g204"><text
           id="text212"
           style="font-variant:normal;font-weight:normal;font-size:9.47999954px;font-family:Calibri;-inkscape-font-specification:Calibri;writing-mode:lr-tb;fill:#595959;fill-opacity:1;fill-rule:nonzero;stroke:none"
           transform="matrix(1,0,0,-1,220.3,509.11)"><tspan
             id="tspan210"
             y="0"
             x="0 5.5078802 8.7500401 13.78392 18.467039 20.742241 23.86116 28.544279">Arbeiter</tspan></text>
</g></g><path
       id="path214"
       style="fill:#70ad47;fill-opacity:1;fill-rule:evenodd;stroke:none"
       d="m 309.46,509.23 h 5.2178 v 5.2178 H 309.46 Z" /><path
       id="path216"
       style="fill:none;stroke:#ffffff;stroke-width:1.5;stroke-linecap:butt;stroke-linejoin:round;stroke-miterlimit:10;stroke-dasharray:none;stroke-opacity:1"
       d="m 309.46,509.23 h 5.2178 v 5.2178 H 309.46 Z" /><g
       id="g218"><g
         clip-path="url(#clipPath224)"
         id="g220"><text
           id="text228"
           style="font-variant:normal;font-weight:normal;font-size:9.47999954px;font-family:Calibri;-inkscape-font-specification:Calibri;writing-mode:lr-tb;fill:#595959;fill-opacity:1;fill-rule:nonzero;stroke:none"
           transform="matrix(1,0,0,-1,316.97,509.11)"><tspan
             id="tspan226"
             y="0"
             x="0 4.9295998 7.0815601 11.86896 15.11112 17.291519 21.604919 26.382839">Kleriker</tspan></text>
</g></g><path
       id="path230"
       style="fill:#264478;fill-opacity:1;fill-rule:evenodd;stroke:none"
       d="m 116.15,491.75 h 5.2178 v 5.2178 H 116.15 Z" /><path
       id="path232"
       style="fill:none;stroke:#ffffff;stroke-width:1.5;stroke-linecap:butt;stroke-linejoin:round;stroke-miterlimit:10;stroke-dasharray:none;stroke-opacity:1"
       d="m 116.15,491.75 h 5.2178 v 5.2178 H 116.15 Z" /><g
       id="g234"><g
         clip-path="url(#clipPath240)"
         id="g236"><text
           id="text244"
           style="font-variant:normal;font-weight:normal;font-size:9.47999954px;font-family:Calibri;-inkscape-font-specification:Calibri;writing-mode:lr-tb;fill:#595959;fill-opacity:1;fill-rule:nonzero;stroke:none"
           transform="matrix(1,0,0,-1,123.62,491.64)"><tspan
             id="tspan242"
             y="0"
             x="0 8.1527996 10.3332 12.47568 14.65608 17.869801 22.410721 25.671841">Militärs</tspan></text>
</g></g><path
       id="path246"
       style="fill:#9e480e;fill-opacity:1;fill-rule:evenodd;stroke:none"
       d="m 212.81,491.75 h 5.2178 v 5.2178 H 212.81 Z" /><path
       id="path248"
       style="fill:none;stroke:#ffffff;stroke-width:1.5;stroke-linecap:butt;stroke-linejoin:round;stroke-miterlimit:10;stroke-dasharray:none;stroke-opacity:1"
       d="m 212.81,491.75 h 5.2178 v 5.2178 H 212.81 Z" /><g
       id="g250"><g
         clip-path="url(#clipPath256)"
         id="g252"><text
           id="text260"
           style="font-variant:normal;font-weight:normal;font-size:9.47999954px;font-family:Calibri;-inkscape-font-specification:Calibri;writing-mode:lr-tb;fill:#595959;fill-opacity:1;fill-rule:nonzero;stroke:none"
           transform="matrix(1,0,0,-1,220.3,491.64)"><tspan
             id="tspan258"
             y="0"
             x="0 5.5078802 10.428 15.2154 17.3958 19.53828 24.003361">Adelige</tspan></text>
</g></g><path
       id="path262"
       style="fill:#636363;fill-opacity:1;fill-rule:evenodd;stroke:none"
       d="m 309.46,491.75 h 5.2178 v 5.2178 H 309.46 Z" /><path
       id="path264"
       style="fill:none;stroke:#ffffff;stroke-width:1.5;stroke-linecap:butt;stroke-linejoin:round;stroke-miterlimit:10;stroke-dasharray:none;stroke-opacity:1"
       d="m 309.46,491.75 h 5.2178 v 5.2178 H 309.46 Z" /><g
       id="g266"><g
         clip-path="url(#clipPath272)"
         id="g268"><text
           id="text276"
           style="font-variant:normal;font-weight:normal;font-size:9.47999954px;font-family:Calibri;-inkscape-font-specification:Calibri;writing-mode:lr-tb;fill:#595959;fill-opacity:1;fill-rule:nonzero;stroke:none"
           transform="matrix(1,0,0,-1,316.97,491.64)"><tspan
             id="tspan274"
             y="0"
             x="0 4.3228798 9.35676 14.39064 18.097321 21.235201 23.4156 27.947041">Sonstige</tspan></text>
</g></g><g
       id="g278"><g
         clip-path="url(#clipPath284)"
         id="g280"><path
           id="path286"
           style="fill:none;stroke:#d9d9d9;stroke-width:0.75;stroke-linecap:butt;stroke-linejoin:round;stroke-miterlimit:10;stroke-dasharray:none;stroke-opacity:1"
           d="M 70.85,481.12 H 444.7 V 750.37 H 70.85 Z" /></g></g></g></svg>